<svg id="svg" version="1.1" xmlns="http://www.w3.org/2000/svg" xmlns:xlink="http://www.w3.org/1999/xlink" width="400" height="400" viewBox="0, 0, 400,400"><g id="svgg"><path id="path0" d="M186.731 133.746 C 185.948 134.218,184.208 135.728,182.864 137.102 C 180.239 139.785,178.926 140.222,177.086 139.023 C 175.714 138.130,170.431 137.822,169.200 138.563 C 168.650 138.895,167.795 139.349,167.300 139.573 C 166.805 139.797,166.400 140.165,166.400 140.390 C 166.400 140.616,166.196 140.800,165.946 140.800 C 165.523 140.800,163.600 142.621,163.600 143.021 C 163.600 143.562,158.431 147.600,157.738 147.600 C 157.283 147.600,153.704 150.999,152.172 152.886 C 151.624 153.561,150.748 154.006,149.575 154.204 C 146.798 154.673,140.800 159.190,140.800 160.811 C 140.800 161.056,140.530 161.527,140.200 161.857 C 139.829 162.228,139.600 163.210,139.600 164.429 C 139.600 165.846,139.444 166.400,139.043 166.400 C 138.737 166.400,138.371 166.862,138.229 167.428 C 138.087 167.993,137.437 168.977,136.785 169.614 C 136.133 170.252,135.600 170.959,135.600 171.187 C 135.600 171.414,135.429 171.600,135.221 171.600 C 134.693 171.600,132.800 173.401,132.800 173.903 C 132.800 174.129,132.530 174.418,132.200 174.545 C 131.870 174.671,131.594 175.276,131.587 175.887 C 131.580 176.499,131.310 177.349,130.987 177.776 C 130.664 178.204,130.400 179.204,130.400 180.000 C 130.400 180.796,130.664 181.796,130.987 182.224 C 131.310 182.651,131.580 183.293,131.587 183.651 C 131.594 184.009,131.870 184.526,132.200 184.800 C 132.530 185.074,132.800 185.627,132.800 186.029 C 132.800 186.431,133.025 186.904,133.300 187.080 C 135.425 188.440,136.490 193.460,134.900 194.624 C 134.335 195.038,134.200 195.751,134.200 198.327 C 134.200 200.803,134.357 201.689,134.900 202.290 C 135.285 202.715,135.600 203.621,135.600 204.303 C 135.600 204.985,135.870 205.813,136.200 206.143 C 136.530 206.473,136.800 207.004,136.800 207.323 C 136.800 207.642,137.169 208.149,137.619 208.451 C 138.070 208.753,138.469 209.405,138.505 209.900 C 138.541 210.395,138.697 210.800,138.852 210.800 C 139.480 210.800,140.384 210.298,140.224 210.039 C 140.130 209.887,140.218 209.500,140.420 209.181 C 140.725 208.699,140.789 208.719,140.794 209.300 C 140.797 209.685,141.070 210.000,141.400 210.000 C 141.730 210.000,142.000 210.171,142.000 210.379 C 142.000 210.970,143.976 212.957,144.271 212.663 C 144.415 212.518,144.343 212.400,144.109 212.400 C 143.876 212.400,143.582 212.130,143.455 211.800 C 143.302 211.400,143.472 211.200,143.966 211.200 C 144.373 211.200,144.801 211.560,144.916 212.000 C 145.069 212.586,145.462 212.800,146.381 212.800 C 147.755 212.800,149.600 214.301,149.600 215.420 C 149.600 215.781,149.909 216.599,150.286 217.238 L 150.972 218.400 196.024 218.400 C 239.162 218.400,241.104 218.369,241.738 217.669 C 244.015 215.152,244.883 215.200,196.906 215.200 C 150.806 215.200,152.000 215.246,152.000 213.482 C 152.000 213.065,151.737 212.246,151.415 211.662 C 149.069 207.407,147.954 188.354,149.906 185.891 C 150.121 185.621,150.424 184.689,150.581 183.820 C 150.738 182.952,151.121 181.877,151.433 181.431 C 151.745 180.986,152.000 180.324,152.000 179.960 C 152.000 179.596,152.270 179.074,152.600 178.800 C 152.930 178.526,153.200 177.977,153.200 177.580 C 153.200 177.182,153.427 176.619,153.705 176.329 C 153.982 176.038,154.410 175.350,154.656 174.800 C 156.597 170.456,164.690 162.510,171.800 157.967 C 175.907 155.342,176.084 155.237,177.473 154.598 C 178.173 154.276,178.858 153.829,178.996 153.606 C 179.134 153.383,179.627 153.200,180.092 153.200 C 180.557 153.200,181.221 152.968,181.569 152.685 C 181.916 152.402,183.550 151.748,185.200 151.232 C 186.850 150.716,188.650 150.109,189.200 149.883 C 191.000 149.145,199.749 149.028,201.894 149.712 C 202.942 150.047,204.397 150.446,205.127 150.598 C 205.857 150.751,206.937 151.127,207.527 151.435 C 208.117 151.743,208.754 151.996,208.942 151.998 C 209.130 151.999,210.084 152.540,211.062 153.200 C 212.040 153.860,212.998 154.400,213.191 154.400 C 213.385 154.400,213.781 154.632,214.071 154.915 C 214.362 155.198,215.860 156.431,217.400 157.655 C 221.114 160.608,225.422 165.396,228.820 170.348 C 231.255 173.898,234.639 179.585,234.979 180.700 C 235.130 181.195,235.422 181.600,235.627 181.600 C 235.832 181.600,235.995 181.825,235.990 182.100 C 235.981 182.530,238.226 187.405,239.260 189.200 C 239.450 189.530,239.708 190.070,239.835 190.400 C 239.961 190.730,240.410 191.740,240.832 192.644 C 241.255 193.548,241.600 194.478,241.600 194.711 C 241.600 194.944,241.852 195.645,242.161 196.268 C 243.265 198.499,244.000 200.439,244.000 201.125 C 244.000 201.508,244.255 202.186,244.567 202.631 C 244.879 203.077,245.258 204.100,245.409 204.906 C 245.560 205.712,245.935 206.580,246.242 206.835 C 246.549 207.090,246.800 207.623,246.800 208.020 C 246.800 208.418,247.025 208.983,247.300 209.278 C 247.575 209.572,248.124 210.449,248.521 211.227 C 252.998 220.020,262.216 222.417,268.077 216.312 C 269.398 214.937,270.370 214.290,271.356 214.130 C 272.499 213.944,272.779 213.709,272.878 212.851 C 272.965 212.100,273.266 211.762,273.933 211.668 C 276.294 211.333,276.400 210.933,276.400 202.340 C 276.400 195.866,276.293 194.350,275.800 193.857 C 275.440 193.497,275.200 192.519,275.200 191.414 C 275.200 190.401,274.950 189.173,274.645 188.686 C 274.340 188.199,273.975 187.143,273.834 186.340 C 273.694 185.537,273.314 184.660,272.989 184.391 C 272.665 184.122,272.400 183.378,272.400 182.738 C 272.400 182.073,272.143 181.476,271.800 181.345 C 271.470 181.218,271.200 180.772,271.200 180.353 C 271.200 179.934,270.570 178.695,269.800 177.600 C 269.030 176.505,268.400 175.436,268.400 175.225 C 268.400 174.671,266.590 172.800,266.054 172.800 C 265.804 172.800,265.600 172.344,265.600 171.787 C 265.600 171.231,265.330 170.671,265.000 170.545 C 264.670 170.418,264.400 170.162,264.400 169.975 C 264.400 169.535,262.465 167.600,262.025 167.600 C 261.838 167.600,261.582 167.330,261.455 167.000 C 261.329 166.670,261.032 166.400,260.796 166.400 C 260.560 166.400,259.980 166.040,259.508 165.600 C 258.203 164.384,254.908 164.464,254.429 165.722 C 254.125 166.522,251.625 168.800,251.051 168.800 C 250.939 168.800,250.792 168.125,250.724 167.300 C 250.521 164.851,249.452 165.328,249.156 168.000 C 248.979 169.597,248.914 169.012,248.919 165.862 C 248.923 162.962,249.049 161.745,249.299 162.191 C 249.851 163.178,251.200 161.854,251.200 160.325 C 251.200 158.669,245.526 152.996,242.500 151.627 C 242.005 151.403,241.600 150.895,241.600 150.499 C 241.600 149.783,240.644 148.646,237.854 146.044 C 237.054 145.298,236.400 144.546,236.400 144.372 C 236.400 143.279,232.779 142.289,229.524 142.492 C 225.959 142.714,221.556 142.117,220.740 141.300 C 220.465 141.025,220.090 140.800,219.907 140.800 C 219.723 140.800,219.072 140.305,218.460 139.700 C 217.849 139.095,216.955 138.375,216.474 138.100 C 215.993 137.825,215.202 137.375,214.715 137.100 C 214.229 136.825,213.586 136.375,213.287 136.100 C 212.461 135.341,206.842 135.424,206.545 136.200 C 206.418 136.530,205.897 136.800,205.386 136.800 C 204.875 136.800,204.187 137.070,203.857 137.400 C 203.527 137.730,202.969 138.000,202.616 138.000 C 202.263 138.000,201.871 137.730,201.745 137.400 C 201.618 137.070,201.264 136.800,200.957 136.800 C 200.651 136.800,200.400 136.530,200.400 136.200 C 200.400 135.870,200.130 135.600,199.800 135.600 C 199.470 135.600,199.200 135.414,199.200 135.187 C 199.200 134.961,198.885 134.663,198.500 134.527 C 198.115 134.390,197.466 133.991,197.058 133.639 C 195.807 132.561,188.570 132.636,186.731 133.746 M192.700 135.076 C 192.315 135.176,191.685 135.176,191.300 135.076 C 190.915 134.975,191.230 134.893,192.000 134.893 C 192.770 134.893,193.085 134.975,192.700 135.076 M196.800 135.171 C 196.800 135.376,197.083 135.826,197.429 136.171 C 197.898 136.641,197.924 136.799,197.529 136.797 C 197.238 136.795,196.792 136.345,196.538 135.797 C 196.283 135.249,196.238 134.800,196.438 134.800 C 196.637 134.800,196.800 134.967,196.800 135.171 M172.500 140.713 C 169.573 140.806,168.800 140.952,168.800 141.415 C 168.800 141.759,168.429 141.995,167.900 141.988 C 167.096 141.977,167.075 141.932,167.700 141.568 C 168.085 141.344,168.400 140.944,168.399 140.680 C 168.398 140.326,169.421 140.252,172.299 140.398 L 176.200 140.596 172.500 140.713 M194.325 140.811 C 195.054 141.255,196.391 142.353,197.298 143.250 C 199.613 145.542,199.189 145.978,194.424 146.199 C 192.347 146.296,189.681 146.576,188.499 146.821 C 184.697 147.610,184.010 146.073,186.809 143.037 C 189.577 140.033,191.915 139.341,194.325 140.811 M211.150 143.600 C 211.307 143.600,212.507 144.514,213.817 145.631 C 218.296 149.448,222.101 150.787,228.491 150.795 C 233.281 150.801,233.684 151.027,234.248 154.021 C 234.528 155.507,235.714 157.068,237.000 157.641 C 237.440 157.838,238.070 158.152,238.400 158.340 C 238.730 158.529,239.709 159.024,240.575 159.441 C 242.666 160.449,243.600 161.509,243.600 162.875 C 243.600 164.325,243.047 164.302,241.940 162.805 C 241.454 162.147,240.324 161.112,239.428 160.505 C 238.533 159.897,237.562 159.175,237.271 158.900 C 236.981 158.625,236.500 158.400,236.204 158.400 C 235.907 158.400,235.155 158.146,234.532 157.835 C 232.279 156.710,228.586 155.913,224.633 155.699 C 220.662 155.484,220.566 155.455,218.400 153.824 C 215.562 151.688,212.843 149.908,211.600 149.373 C 211.270 149.231,210.010 148.753,208.800 148.311 C 205.665 147.165,205.400 146.999,205.400 146.177 C 205.400 145.324,209.411 143.042,210.306 143.385 C 210.614 143.503,210.993 143.600,211.150 143.600 M233.167 144.655 C 233.258 144.735,230.738 144.773,227.567 144.740 C 223.719 144.700,222.399 144.587,223.600 144.400 C 225.287 144.137,232.801 144.338,233.167 144.655 M164.800 145.200 C 164.800 145.733,164.533 146.000,164.000 146.000 C 163.235 146.000,163.230 145.967,163.900 145.233 C 164.796 144.252,164.800 144.252,164.800 145.200 M174.400 146.551 C 180.025 147.742,180.930 148.783,177.772 150.426 C 170.979 153.959,166.724 156.707,163.001 159.965 C 160.858 161.840,160.743 161.886,157.511 162.135 C 155.125 162.319,153.909 162.613,153.122 163.195 C 152.522 163.638,151.876 164.000,151.686 164.000 C 151.495 164.000,150.923 164.443,150.414 164.985 C 147.506 168.081,146.479 172.744,147.789 176.909 C 148.472 179.082,148.469 179.141,147.492 182.054 C 145.292 188.614,144.479 200.418,145.968 204.169 C 147.085 206.980,145.020 206.891,143.765 204.074 C 141.967 200.037,141.788 198.067,142.955 195.149 C 144.587 191.069,144.241 189.364,140.720 184.164 C 137.852 179.928,137.956 178.790,141.554 175.057 C 144.548 171.951,146.800 168.605,146.800 167.264 C 146.800 164.136,148.638 162.369,152.490 161.794 C 154.362 161.515,156.885 159.326,159.249 155.931 C 159.605 155.419,161.069 154.402,162.502 153.672 C 163.951 152.934,165.971 151.441,167.054 150.310 C 170.166 147.058,171.267 146.000,171.542 146.000 C 171.684 146.000,172.970 146.248,174.400 146.551 M239.483 152.095 C 239.387 152.593,239.305 152.280,239.301 151.400 C 239.296 150.520,239.375 150.113,239.475 150.495 C 239.575 150.878,239.579 151.598,239.483 152.095 M151.200 156.575 C 151.530 156.648,150.765 156.728,149.500 156.754 C 148.235 156.779,147.200 156.660,147.200 156.489 C 147.200 156.205,149.773 156.260,151.200 156.575 M232.400 160.922 C 240.586 164.108,243.724 170.181,241.418 178.374 C 240.864 180.344,240.303 181.177,239.520 181.194 C 239.365 181.197,238.555 179.986,237.720 178.502 C 236.884 177.019,235.983 175.444,235.717 175.002 C 235.452 174.561,235.067 173.840,234.862 173.400 C 233.891 171.315,226.477 161.200,225.920 161.200 C 225.744 161.200,225.600 160.827,225.600 160.371 C 225.600 159.312,228.963 159.584,232.400 160.922 M155.741 166.989 C 155.865 167.314,155.739 167.719,155.461 167.889 C 155.184 168.060,154.532 168.920,154.014 169.800 C 152.499 172.375,150.800 173.527,150.800 171.980 C 150.800 169.960,153.457 166.653,155.257 166.432 C 155.399 166.414,155.616 166.665,155.741 166.989 M260.119 167.813 C 260.815 168.770,260.814 168.800,260.065 168.800 C 259.559 168.800,259.227 168.455,259.102 167.800 C 258.862 166.542,259.197 166.546,260.119 167.813 M253.861 168.888 C 253.442 170.492,253.968 171.505,255.356 171.765 C 257.819 172.227,265.594 182.932,265.599 185.868 C 265.600 186.125,265.850 186.845,266.156 187.468 C 267.034 189.258,267.654 191.232,268.044 193.481 C 268.243 194.625,268.584 196.032,268.802 196.607 C 271.618 204.011,266.305 217.208,260.514 217.198 C 257.764 217.193,256.424 214.212,258.799 213.381 C 259.579 213.108,262.257 209.625,262.824 208.147 C 263.528 206.311,262.645 202.907,260.375 198.705 C 260.169 198.323,260.000 196.202,260.000 193.992 C 260.000 188.215,259.241 186.847,253.372 182.040 C 250.975 180.076,249.099 177.757,248.649 176.200 C 248.386 175.292,249.316 172.249,249.730 172.663 C 249.878 172.812,250.000 172.723,250.000 172.467 C 250.000 172.210,249.820 172.000,249.600 172.000 C 248.800 172.000,249.229 170.952,250.477 169.857 C 251.330 169.109,252.062 168.795,252.677 168.913 C 253.275 169.027,253.600 168.897,253.600 168.545 C 253.600 168.245,253.711 168.000,253.847 168.000 C 253.982 168.000,253.989 168.400,253.861 168.888 M216.060 171.180 C 216.232 171.696,216.781 171.788,216.830 171.310 C 216.847 171.151,216.644 170.948,216.380 170.860 C 216.116 170.772,215.972 170.916,216.060 171.180 M267.196 176.400 C 267.758 176.400,267.869 176.606,267.679 177.300 C 267.478 178.032,267.405 178.069,267.287 177.500 C 267.207 177.115,266.885 176.800,266.571 176.800 C 266.257 176.800,266.014 176.485,266.032 176.100 C 266.050 175.682,266.144 175.601,266.265 175.900 C 266.376 176.175,266.795 176.400,267.196 176.400 M222.800 176.776 C 222.800 177.447,223.509 177.613,223.746 176.998 C 223.885 176.635,223.744 176.400,223.387 176.400 C 223.064 176.400,222.800 176.569,222.800 176.776 M132.754 179.500 L 132.708 181.400 132.397 179.800 C 132.110 178.323,132.184 177.600,132.624 177.600 C 132.721 177.600,132.779 178.455,132.754 179.500 M246.400 180.059 C 246.400 180.921,249.175 183.906,251.289 185.316 C 255.359 188.033,255.730 188.657,256.043 193.310 C 256.302 197.172,256.976 200.429,257.883 202.209 C 258.104 202.644,258.581 203.568,258.943 204.262 C 259.988 206.269,259.755 206.973,257.178 209.590 C 254.415 212.396,253.903 212.460,252.312 210.198 C 251.234 208.666,248.400 203.088,248.400 202.499 C 248.400 202.207,247.099 198.776,246.140 196.540 C 245.843 195.846,245.600 195.154,245.600 195.000 C 245.600 194.846,245.351 194.154,245.047 193.460 C 244.742 192.767,243.917 190.844,243.212 189.187 L 241.932 186.174 243.166 183.925 C 243.845 182.688,244.400 181.425,244.400 181.118 C 244.400 180.416,245.196 179.600,245.880 179.600 C 246.166 179.600,246.400 179.806,246.400 180.059 M216.188 181.620 C 215.807 182.235,216.328 182.632,216.842 182.118 C 217.129 181.831,217.136 181.607,216.862 181.439 C 216.639 181.300,216.335 181.382,216.188 181.620 M169.660 183.180 C 169.748 183.444,169.951 183.647,170.110 183.630 C 170.588 183.581,170.496 183.032,169.980 182.860 C 169.716 182.772,169.572 182.916,169.660 183.180 M158.860 184.380 C 159.032 184.896,159.581 184.988,159.630 184.510 C 159.647 184.351,159.444 184.148,159.180 184.060 C 158.916 183.972,158.772 184.116,158.860 184.380 M271.676 185.800 C 271.586 186.570,271.442 187.200,271.356 187.200 C 271.270 187.200,271.200 186.570,271.200 185.800 C 271.200 185.030,271.344 184.400,271.520 184.400 C 271.696 184.400,271.766 185.030,271.676 185.800 M137.882 193.300 C 137.787 193.795,137.709 193.390,137.709 192.400 C 137.709 191.410,137.787 191.005,137.882 191.500 C 137.978 191.995,137.978 192.805,137.882 193.300 M136.800 198.600 C 136.800 200.470,136.665 202.000,136.500 202.001 C 136.335 202.001,136.258 200.471,136.329 198.601 C 136.497 194.207,136.800 194.207,136.800 198.600 M274.291 204.300 C 274.205 205.125,274.134 204.450,274.134 202.800 C 274.134 201.150,274.205 200.475,274.291 201.300 C 274.378 202.125,274.378 203.475,274.291 204.300 M290.287 217.768 C 291.069 218.814,291.352 218.863,290.978 217.888 C 290.846 217.544,290.476 217.161,290.156 217.039 C 289.718 216.870,289.750 217.051,290.287 217.768 M164.790 226.663 C 165.448 226.990,165.262 227.925,164.500 228.124 C 163.989 228.258,164.050 228.320,164.728 228.354 C 165.747 228.405,165.895 226.761,164.890 226.561 C 164.610 226.506,164.565 226.552,164.790 226.663 M243.771 228.460 C 243.771 228.904,244.057 229.200,244.486 229.200 C 244.879 229.200,245.200 228.951,245.200 228.647 C 245.200 228.342,244.879 228.009,244.486 227.907 C 243.990 227.777,243.771 227.946,243.771 228.460 M84.400 241.606 C 83.613 242.123,84.514 242.788,86.000 242.788 C 86.550 242.788,87.270 242.611,87.600 242.394 C 88.387 241.877,87.486 241.212,86.000 241.212 C 85.450 241.212,84.730 241.389,84.400 241.606 M100.400 241.606 C 99.578 242.146,100.530 242.780,102.200 242.806 C 103.001 242.819,103.639 243.153,104.119 243.813 C 104.819 244.775,104.817 244.800,104.019 244.800 C 103.558 244.800,103.200 244.538,103.200 244.200 C 103.200 243.424,100.183 243.363,99.720 244.130 C 99.544 244.422,99.085 244.776,98.700 244.918 C 98.060 245.153,98.000 245.988,98.000 254.596 L 98.000 264.017 99.000 264.473 C 99.550 264.723,100.000 265.080,100.000 265.264 C 100.000 265.767,103.811 265.669,104.981 265.136 C 105.815 264.756,106.010 264.374,106.053 263.036 L 106.105 261.400 106.353 262.795 C 106.616 264.279,107.814 264.951,108.236 263.851 C 108.422 263.365,108.701 263.480,109.621 264.422 C 110.255 265.070,110.940 265.600,111.144 265.600 C 111.348 265.600,111.618 265.870,111.745 266.200 C 112.009 266.889,113.029 267.000,113.411 266.382 C 113.553 266.153,113.451 265.703,113.185 265.382 C 112.788 264.904,112.853 264.800,113.551 264.800 C 114.018 264.800,114.400 264.980,114.400 265.200 C 114.400 265.739,115.730 265.706,116.981 265.136 L 118.000 264.672 118.000 254.769 C 118.000 249.322,117.891 244.581,117.757 244.233 C 117.382 243.256,112.757 243.342,111.852 244.343 C 111.417 244.823,110.831 245.019,110.194 244.897 C 109.435 244.752,109.121 244.926,108.829 245.654 C 108.544 246.368,108.444 246.425,108.425 245.887 C 108.411 245.496,108.085 245.055,107.700 244.909 C 107.315 244.763,106.555 244.138,106.011 243.522 C 105.467 242.905,104.869 242.400,104.682 242.400 C 104.496 242.400,104.073 242.130,103.743 241.800 C 103.063 241.120,101.297 241.017,100.400 241.606 M113.792 241.613 C 113.336 242.351,114.196 242.868,115.649 242.729 C 117.563 242.546,117.478 241.440,115.537 241.278 C 114.733 241.211,113.947 241.362,113.792 241.613 M129.814 241.577 C 129.229 242.525,130.222 242.800,134.224 242.800 C 136.741 242.800,138.400 242.959,138.400 243.200 C 138.400 243.444,136.545 243.600,133.636 243.600 L 128.871 243.600 127.836 244.831 C 127.266 245.508,126.800 245.868,126.800 245.631 C 126.800 244.956,125.314 245.127,125.043 245.833 C 124.471 247.323,124.782 263.024,125.400 263.824 C 125.994 264.592,126.006 264.592,126.600 263.824 C 127.134 263.133,127.200 263.123,127.200 263.736 C 127.200 264.115,127.515 264.526,127.900 264.649 C 128.285 264.772,128.973 265.049,129.428 265.265 C 130.314 265.686,137.008 265.505,139.000 265.008 C 140.154 264.719,140.169 264.732,139.400 265.354 C 138.609 265.993,138.609 266.007,139.376 266.600 C 140.449 267.429,142.403 267.336,143.600 266.400 C 144.150 265.970,144.739 265.614,144.909 265.609 C 145.311 265.597,149.597 261.311,149.609 260.909 C 149.614 260.739,149.970 260.150,150.400 259.600 C 152.247 257.239,150.904 247.600,148.729 247.600 C 148.548 247.600,148.400 247.429,148.400 247.221 C 148.400 246.693,146.599 244.800,146.097 244.800 C 145.871 244.800,145.582 244.530,145.455 244.200 C 145.329 243.870,144.971 243.600,144.662 243.600 C 144.352 243.600,143.884 243.342,143.622 243.027 C 142.538 241.721,130.506 240.458,129.814 241.577 M155.000 241.600 C 154.502 242.406,155.298 242.800,157.424 242.800 C 160.552 242.800,160.112 243.541,156.900 243.682 C 154.293 243.796,154.196 243.838,154.075 244.888 C 153.964 245.850,153.861 245.920,153.185 245.498 C 152.074 244.804,151.062 245.804,152.100 246.571 C 152.485 246.855,152.800 247.303,152.800 247.565 C 152.800 248.388,154.576 251.194,155.100 251.197 C 155.375 251.199,155.600 251.656,155.600 252.213 C 155.600 252.769,155.870 253.329,156.200 253.455 C 156.530 253.582,156.801 253.981,156.803 254.343 C 156.804 254.704,157.163 255.540,157.600 256.200 C 158.229 257.150,158.395 258.080,158.397 260.657 C 158.402 266.231,160.274 265.628,160.501 259.980 L 160.637 256.600 160.719 260.471 L 160.800 264.341 162.061 264.971 C 164.262 266.069,168.055 265.366,168.677 263.744 C 168.854 263.283,168.998 263.309,169.447 263.888 C 170.481 265.220,171.200 263.533,171.200 259.773 C 171.200 257.350,171.356 256.368,171.800 256.000 C 172.130 255.726,172.400 255.204,172.400 254.840 C 172.400 254.476,172.765 253.865,173.211 253.483 C 173.861 252.927,173.938 252.631,173.597 251.994 C 173.237 251.321,173.298 251.200,173.998 251.200 C 174.453 251.200,174.944 250.885,175.090 250.500 C 175.236 250.115,175.590 249.562,175.878 249.271 C 176.165 248.981,176.400 248.415,176.400 248.014 C 176.400 247.613,176.683 247.177,177.028 247.045 C 177.732 246.774,177.670 245.152,176.946 244.913 C 176.697 244.831,176.202 245.055,175.846 245.411 C 175.251 246.006,175.200 245.960,175.200 244.829 L 175.200 243.600 172.787 243.600 C 171.012 243.600,170.314 243.758,170.145 244.200 C 170.018 244.530,169.484 244.800,168.957 244.800 C 167.822 244.800,167.741 244.477,168.699 243.777 C 169.084 243.496,169.270 243.136,169.112 242.979 C 168.528 242.395,166.827 244.551,167.044 245.600 C 167.226 246.482,167.196 246.514,166.789 245.871 C 166.253 245.024,164.851 245.911,164.747 247.162 C 164.718 247.513,164.583 247.172,164.447 246.405 C 164.280 245.460,163.950 244.961,163.428 244.861 C 162.531 244.690,161.600 243.852,161.600 243.216 C 161.600 242.973,161.285 242.656,160.900 242.510 C 160.515 242.364,159.962 242.010,159.671 241.722 C 159.053 241.111,155.362 241.015,155.000 241.600 M169.619 241.777 C 168.929 242.608,169.701 242.886,172.251 242.724 C 173.662 242.634,174.200 242.434,174.200 242.000 C 174.200 241.123,170.319 240.934,169.619 241.777 M197.800 241.600 C 197.183 242.598,198.318 242.800,204.524 242.794 C 210.905 242.788,212.892 242.454,211.600 241.606 C 210.800 241.081,198.124 241.075,197.800 241.600 M226.993 241.612 C 226.837 241.864,226.891 242.251,227.112 242.472 C 227.681 243.041,229.000 242.707,229.000 241.995 C 229.000 241.275,227.390 240.969,226.993 241.612 M253.833 241.546 C 253.716 241.736,253.011 241.991,252.268 242.112 C 250.891 242.335,248.800 243.923,248.800 244.746 C 248.800 244.996,248.424 245.200,247.965 245.200 C 247.405 245.200,246.982 245.595,246.678 246.400 C 246.428 247.060,246.060 247.600,245.858 247.600 C 245.086 247.600,243.600 249.686,243.600 250.772 C 243.600 251.393,243.330 252.126,243.000 252.400 C 242.222 253.046,242.214 256.001,242.987 257.024 C 243.310 257.451,243.580 258.264,243.587 258.830 C 243.596 259.510,244.077 260.259,245.000 261.028 C 245.770 261.670,246.400 262.417,246.400 262.689 C 246.400 262.960,246.895 263.500,247.500 263.889 C 248.105 264.278,249.161 265.182,249.847 265.898 C 251.229 267.340,252.901 267.613,254.224 266.613 C 254.651 266.290,255.591 266.020,256.313 266.013 C 257.101 266.005,257.717 265.760,257.855 265.400 C 258.224 264.438,258.633 264.707,258.616 265.900 C 258.595 267.362,260.871 267.763,261.587 266.423 C 261.830 265.971,262.247 265.600,262.515 265.600 C 263.276 265.600,265.485 263.095,264.898 262.899 C 264.309 262.703,264.218 260.000,264.800 260.000 C 265.020 260.000,265.200 259.730,265.200 259.400 C 265.200 258.721,264.142 258.574,263.926 259.223 C 263.845 259.465,263.461 259.522,263.028 259.355 C 262.313 259.081,262.319 259.048,263.136 258.745 C 264.327 258.305,264.217 257.787,262.808 257.203 C 261.469 256.649,259.600 256.950,259.600 257.721 C 259.600 258.571,254.085 258.085,253.152 257.152 C 252.094 256.094,252.122 253.078,253.200 252.000 C 254.234 250.966,259.365 250.810,259.745 251.800 C 260.041 252.572,262.384 252.592,263.423 251.833 C 264.383 251.131,264.046 250.760,262.104 250.384 L 260.600 250.092 262.220 250.046 C 263.111 250.021,264.036 250.196,264.275 250.435 C 264.588 250.748,264.791 250.738,265.000 250.400 C 265.160 250.142,265.090 249.730,264.845 249.485 C 264.600 249.240,264.400 248.572,264.400 248.000 C 264.400 247.428,264.600 246.760,264.845 246.515 C 265.578 245.782,264.841 245.042,264.060 245.726 C 263.655 246.081,263.097 246.194,262.615 246.017 C 261.910 245.759,261.941 245.702,262.915 245.457 C 264.235 245.126,264.302 244.585,263.100 243.960 C 262.605 243.702,261.878 243.156,261.484 242.746 C 261.091 242.336,260.246 242.000,259.608 242.000 C 258.970 242.000,258.336 241.820,258.200 241.600 C 257.898 241.111,254.131 241.064,253.833 241.546 M280.400 241.600 C 280.070 241.813,279.395 241.991,278.900 241.994 C 278.405 241.997,277.669 242.315,277.265 242.700 C 276.453 243.473,275.421 244.187,274.195 244.824 C 273.318 245.279,272.000 247.326,272.000 248.232 C 272.000 248.545,271.747 248.800,271.438 248.800 C 270.367 248.800,268.800 252.163,268.797 254.471 C 268.792 257.032,270.212 260.400,271.294 260.400 C 271.780 260.400,272.000 260.711,272.000 261.400 C 272.000 261.950,272.151 262.400,272.336 262.400 C 272.520 262.400,272.877 262.850,273.127 263.400 C 273.378 263.950,273.857 264.400,274.191 264.400 C 274.526 264.400,274.800 264.568,274.800 264.773 C 274.800 264.978,275.205 265.274,275.700 265.430 C 276.195 265.587,276.842 266.059,277.138 266.480 C 278.023 267.737,280.205 267.322,280.184 265.900 C 280.167 264.707,280.576 264.438,280.945 265.400 C 281.097 265.796,281.723 266.000,282.787 266.000 C 283.954 266.000,284.400 265.834,284.400 265.400 C 284.400 265.070,284.542 264.800,284.716 264.800 C 284.889 264.800,285.024 265.295,285.016 265.900 C 284.995 267.368,287.165 267.717,288.272 266.424 C 288.660 265.971,289.163 265.600,289.390 265.600 C 289.816 265.600,292.000 263.455,292.000 263.036 C 292.000 262.906,291.550 262.800,291.000 262.800 C 290.450 262.800,290.000 262.620,290.000 262.400 C 290.000 262.180,290.270 262.000,290.600 262.000 C 290.930 262.000,291.207 261.685,291.216 261.300 C 291.227 260.808,291.414 260.935,291.843 261.727 C 292.471 262.886,293.600 262.653,293.600 261.365 C 293.600 261.070,293.960 260.635,294.400 260.400 C 294.877 260.145,295.200 259.562,295.200 258.957 C 295.200 258.399,295.470 257.673,295.800 257.343 C 296.183 256.960,296.400 255.974,296.400 254.620 C 296.400 253.222,296.195 252.328,295.800 252.000 C 295.470 251.726,295.200 250.967,295.200 250.314 C 295.200 249.479,294.972 249.065,294.434 248.925 C 294.013 248.815,293.559 248.291,293.426 247.762 C 293.102 246.470,292.160 246.543,291.665 247.900 C 291.314 248.861,291.259 248.890,291.232 248.129 C 291.214 247.650,290.885 247.176,290.500 247.076 C 289.959 246.934,290.000 246.882,290.676 246.846 C 292.409 246.755,290.764 243.600,288.983 243.600 C 288.710 243.600,288.382 243.330,288.255 243.000 C 288.129 242.670,287.704 242.399,287.313 242.398 C 286.921 242.396,286.084 242.126,285.454 241.798 C 284.164 241.124,281.309 241.013,280.400 241.600 M307.718 241.990 C 307.549 242.638,307.370 242.705,306.729 242.362 C 305.938 241.939,304.000 242.780,304.000 243.546 C 304.000 243.727,303.415 244.194,302.700 244.584 C 298.923 246.647,298.359 251.751,301.567 254.843 C 303.065 256.287,303.388 256.796,302.922 256.975 C 302.517 257.130,302.373 257.548,302.499 258.205 C 302.603 258.752,302.534 259.200,302.345 259.200 C 302.155 259.200,302.000 260.100,302.000 261.200 C 302.000 262.816,302.131 263.200,302.680 263.200 C 303.209 263.200,303.253 263.307,302.880 263.680 C 301.067 265.493,305.192 268.197,307.411 266.650 C 308.380 265.974,311.665 265.601,311.473 266.189 C 311.398 266.415,310.575 266.656,309.644 266.724 C 308.555 266.804,308.005 267.018,308.106 267.324 C 308.309 267.943,311.178 268.182,311.733 267.627 C 311.968 267.392,312.626 267.200,313.195 267.200 C 313.931 267.200,314.746 266.624,316.015 265.209 C 316.997 264.113,318.031 263.213,318.313 263.209 C 318.594 263.204,318.944 262.885,319.090 262.500 C 319.236 262.115,319.590 261.562,319.878 261.271 C 321.166 259.968,320.515 257.138,318.389 254.800 C 317.289 253.590,316.284 252.204,316.156 251.721 C 316.028 251.237,315.446 250.666,314.862 250.452 L 313.800 250.063 314.876 250.032 C 315.468 250.014,316.066 250.183,316.204 250.407 C 316.696 251.202,317.170 250.348,316.938 249.084 C 316.712 247.849,316.727 247.830,317.351 248.600 C 318.081 249.499,319.200 248.643,319.200 247.186 C 319.200 245.955,317.760 245.003,317.211 245.871 C 316.812 246.502,316.780 246.455,316.976 245.525 C 317.201 244.458,316.405 243.385,316.090 244.329 C 315.996 244.611,315.183 244.780,314.067 244.750 L 312.200 244.700 313.893 244.424 C 316.117 244.062,316.405 243.697,315.225 242.741 C 314.584 242.221,313.928 242.032,313.309 242.187 C 312.725 242.334,312.134 242.191,311.755 241.812 C 310.814 240.871,307.978 240.996,307.718 241.990 M225.600 243.400 C 225.600 243.730,225.780 244.000,226.000 244.000 C 226.220 244.000,226.400 243.730,226.400 243.400 C 226.400 243.070,226.220 242.800,226.000 242.800 C 225.780 242.800,225.600 243.070,225.600 243.400 M228.600 243.788 C 227.940 244.329,227.085 244.778,226.700 244.786 C 226.315 244.794,226.000 245.082,226.000 245.427 C 226.000 245.859,225.766 245.980,225.246 245.815 C 224.036 245.431,222.377 246.416,222.127 247.667 C 222.004 248.280,221.655 248.988,221.352 249.240 C 221.048 249.492,220.800 250.104,220.800 250.600 C 220.800 251.096,220.530 251.726,220.200 252.000 C 219.870 252.274,219.600 252.853,219.600 253.286 C 219.600 253.719,219.240 254.531,218.800 255.091 C 218.360 255.650,218.000 256.422,218.000 256.805 C 218.000 257.188,217.715 257.739,217.366 258.028 C 216.975 258.353,216.794 258.975,216.893 259.650 C 217.011 260.456,216.862 260.795,216.327 260.935 C 215.030 261.274,215.390 263.345,216.953 264.537 C 218.941 266.053,221.540 267.020,222.106 266.454 C 222.636 265.924,222.190 265.371,221.000 265.085 C 220.277 264.911,220.287 264.888,221.100 264.846 C 221.718 264.815,222.000 264.549,222.000 264.000 C 222.000 263.113,222.413 262.973,223.075 263.635 C 223.388 263.948,223.585 263.948,223.778 263.635 C 224.225 262.913,231.462 263.063,231.745 263.800 C 232.023 264.526,233.453 264.598,233.735 263.900 C 233.856 263.601,233.950 263.682,233.968 264.100 C 233.988 264.537,234.319 264.800,234.849 264.800 C 235.564 264.800,235.618 264.896,235.192 265.410 C 234.403 266.360,234.964 266.513,237.066 265.922 C 238.710 265.459,239.019 265.214,239.127 264.289 C 239.262 263.122,239.581 262.941,240.275 263.635 C 240.588 263.948,240.791 263.938,241.000 263.600 C 241.160 263.342,241.090 262.930,240.845 262.685 C 240.600 262.440,240.400 261.848,240.400 261.369 C 240.400 260.890,240.130 260.274,239.800 260.000 C 239.470 259.726,239.200 259.096,239.200 258.600 C 239.200 258.104,238.930 257.474,238.600 257.200 C 238.270 256.926,238.000 256.371,238.000 255.967 C 238.000 255.562,237.657 254.909,237.238 254.516 C 236.819 254.122,236.414 253.352,236.338 252.804 C 236.183 251.688,234.896 251.205,234.354 252.061 C 234.085 252.486,234.011 252.461,234.006 251.943 C 234.003 251.581,234.270 251.182,234.600 251.055 C 235.403 250.747,235.356 250.075,234.400 248.200 C 233.960 247.337,233.600 246.433,233.600 246.191 C 233.600 245.507,231.075 243.775,230.890 244.331 C 230.708 244.876,229.600 244.972,229.600 244.443 C 229.600 244.246,229.881 243.978,230.225 243.846 C 230.569 243.714,230.739 243.424,230.602 243.203 C 230.235 242.609,229.928 242.699,228.600 243.788 M258.000 243.208 C 258.000 243.443,257.577 243.509,257.000 243.364 C 255.640 243.023,254.000 243.484,254.000 244.208 C 254.000 244.637,253.587 244.782,252.500 244.736 C 251.051 244.674,251.044 244.667,252.281 244.512 C 253.107 244.409,253.649 244.077,253.808 243.576 C 254.077 242.728,258.000 242.383,258.000 243.208 M284.908 243.571 C 285.044 244.091,285.549 244.396,286.455 244.507 L 287.800 244.672 286.396 244.736 C 285.380 244.782,284.855 244.579,284.493 244.000 C 283.751 242.812,280.800 243.006,280.800 244.243 C 280.800 244.631,280.344 244.782,279.300 244.740 C 278.020 244.689,277.968 244.655,278.946 244.509 C 279.648 244.404,280.169 244.040,280.292 243.569 C 280.590 242.429,284.610 242.431,284.908 243.571 M311.600 243.111 C 311.600 243.281,310.880 243.352,310.000 243.269 C 309.120 243.185,308.400 243.045,308.400 242.958 C 308.400 242.871,309.120 242.800,310.000 242.800 C 310.880 242.800,311.600 242.940,311.600 243.111 M82.629 244.229 C 82.283 244.574,82.000 245.149,82.000 245.505 C 82.000 246.056,81.919 246.042,81.458 245.411 C 81.123 244.953,80.662 244.767,80.251 244.925 C 79.165 245.342,79.456 264.123,80.552 264.334 C 80.966 264.414,81.458 264.236,81.646 263.939 C 81.918 263.510,81.989 263.530,81.994 264.036 C 82.010 265.684,86.907 266.197,88.597 264.728 L 89.600 263.856 89.600 254.684 C 89.600 245.721,89.580 245.491,88.700 244.563 C 87.585 243.387,83.685 243.172,82.629 244.229 M196.229 244.381 C 195.630 244.774,194.732 245.000,194.185 244.895 C 192.545 244.582,192.296 247.683,193.912 248.295 C 194.791 248.628,195.600 249.424,195.600 249.957 C 195.600 250.577,196.987 251.200,198.364 251.200 L 199.580 251.200 199.690 257.695 C 199.802 264.306,200.335 266.008,201.646 263.939 C 201.918 263.510,201.989 263.530,201.994 264.036 C 202.000 264.651,203.534 265.600,204.523 265.600 C 204.790 265.600,205.501 265.143,206.104 264.584 L 207.200 263.568 207.200 257.384 C 207.200 249.115,207.943 249.130,208.090 257.401 C 208.157 261.195,208.355 263.602,208.600 263.602 C 208.845 263.602,209.043 261.195,209.110 257.401 L 209.220 251.200 210.177 251.200 C 211.643 251.200,212.400 250.788,212.400 249.991 C 212.400 249.592,212.560 249.207,212.755 249.133 C 213.648 248.799,212.729 244.930,211.598 244.262 C 209.922 243.272,197.776 243.366,196.229 244.381 M143.600 244.680 C 143.600 244.944,143.915 245.344,144.300 245.568 C 144.925 245.932,144.904 245.977,144.100 245.988 C 143.561 245.995,143.200 245.759,143.200 245.400 C 143.200 244.947,142.711 244.800,141.200 244.800 C 140.100 244.800,139.200 244.665,139.200 244.500 C 139.200 244.335,140.190 244.200,141.400 244.200 C 142.845 244.200,143.600 244.365,143.600 244.680 M307.167 244.657 C 307.258 244.735,306.763 244.800,306.067 244.800 C 305.207 244.800,304.800 244.993,304.800 245.400 C 304.800 245.733,304.444 246.000,304.000 246.000 C 303.556 246.000,303.200 246.267,303.200 246.600 C 303.200 246.930,302.930 247.200,302.600 247.200 C 302.270 247.200,301.997 247.515,301.994 247.900 C 301.989 248.498,301.932 248.512,301.604 248.000 C 301.325 247.563,301.414 247.311,301.934 247.073 C 302.326 246.893,302.972 246.143,303.369 245.405 C 304.040 244.160,306.114 243.751,307.167 244.657 M118.680 245.453 C 118.081 246.052,118.359 263.898,118.971 264.133 C 120.249 264.624,120.417 263.399,120.308 254.355 C 120.199 245.346,119.981 244.152,118.680 245.453 M213.200 246.376 C 213.200 247.707,213.912 248.382,214.439 247.551 C 215.101 246.505,214.858 245.200,214.000 245.200 C 213.381 245.200,213.200 245.467,213.200 246.376 M231.476 247.100 C 231.375 247.485,231.293 247.170,231.293 246.400 C 231.293 245.630,231.375 245.315,231.476 245.700 C 231.576 246.085,231.576 246.715,231.476 247.100 M276.100 245.920 C 275.605 245.994,275.200 246.313,275.200 246.628 C 275.200 246.943,274.930 247.200,274.600 247.200 C 274.267 247.200,274.000 247.556,274.000 248.000 C 274.000 248.440,273.820 248.800,273.600 248.800 C 272.863 248.800,273.190 247.257,273.980 247.006 C 274.408 246.870,274.865 246.427,274.993 246.021 C 275.165 245.480,275.465 245.349,276.114 245.533 L 277.000 245.784 276.100 245.920 M96.092 254.600 C 96.160 260.262,96.348 263.601,96.600 263.601 C 96.852 263.601,97.040 260.262,97.108 254.600 C 97.202 246.722,97.138 245.600,96.600 245.600 C 96.062 245.600,95.998 246.722,96.092 254.600 M90.860 247.180 C 91.032 247.696,91.581 247.788,91.630 247.310 C 91.647 247.150,91.444 246.948,91.180 246.860 C 90.916 246.772,90.772 246.916,90.860 247.180 M265.357 247.367 C 265.026 248.229,265.487 249.304,266.100 249.100 C 266.375 249.008,266.600 248.513,266.600 248.000 C 266.600 246.904,265.709 246.450,265.357 247.367 M90.888 254.601 C 91.038 261.321,91.765 261.391,91.912 254.700 C 92.009 250.299,91.938 249.600,91.400 249.600 C 90.862 249.600,90.792 250.289,90.888 254.601 M136.073 250.346 C 135.677 250.597,135.578 251.741,135.673 254.941 C 135.743 257.284,135.665 259.201,135.500 259.201 C 135.335 259.200,135.200 257.130,135.200 254.600 C 135.200 250.483,135.274 250.001,135.900 250.006 C 136.429 250.011,136.471 250.094,136.073 250.346 M251.716 250.800 C 251.601 251.240,251.273 251.600,250.987 251.600 C 250.701 251.600,250.376 251.825,250.265 252.100 C 250.144 252.399,250.050 252.318,250.032 251.900 C 250.014 251.515,250.270 251.200,250.600 251.200 C 250.930 251.200,251.200 250.930,251.200 250.600 C 251.200 250.270,251.363 250.000,251.563 250.000 C 251.762 250.000,251.831 250.360,251.716 250.800 M228.800 251.957 C 228.800 252.374,228.509 252.826,228.154 252.962 C 227.717 253.130,227.570 253.532,227.699 254.205 C 227.809 254.782,227.702 255.200,227.445 255.200 C 227.159 255.200,227.050 254.484,227.139 253.200 C 227.280 251.163,228.800 250.025,228.800 251.957 M285.757 251.833 C 286.233 253.073,286.012 256.846,285.429 257.429 C 285.072 257.785,284.031 258.000,282.661 258.000 C 279.225 258.000,279.200 257.974,279.200 254.357 L 279.200 251.200 282.357 251.200 C 284.867 251.200,285.564 251.330,285.757 251.833 M288.692 256.512 C 288.608 257.440,288.541 256.580,288.542 254.600 C 288.543 252.620,288.612 251.860,288.695 252.912 C 288.777 253.964,288.776 255.584,288.692 256.512 M312.800 252.500 C 312.800 252.665,311.900 252.800,310.800 252.800 C 309.700 252.800,308.800 252.665,308.800 252.500 C 308.800 252.335,309.700 252.200,310.800 252.200 C 311.900 252.200,312.800 252.335,312.800 252.500 M139.206 253.411 C 139.862 254.637,139.342 256.523,138.292 256.725 C 137.703 256.839,137.600 256.527,137.600 254.629 C 137.600 252.153,138.263 251.650,139.206 253.411 M244.800 254.600 C 244.800 255.810,244.665 256.800,244.500 256.800 C 244.335 256.800,244.200 255.810,244.200 254.600 C 244.200 253.390,244.335 252.400,244.500 252.400 C 244.665 252.400,244.800 253.390,244.800 254.600 M294.290 255.693 C 294.201 256.412,294.126 255.920,294.124 254.600 C 294.122 253.280,294.195 252.692,294.286 253.293 C 294.377 253.894,294.379 254.974,294.290 255.693 M220.800 256.200 C 220.800 256.750,220.731 257.200,220.647 257.200 C 220.562 257.200,220.407 256.750,220.302 256.200 C 220.197 255.650,220.266 255.200,220.455 255.200 C 220.645 255.200,220.800 255.650,220.800 256.200 M306.262 256.203 C 306.851 257.472,306.542 257.470,305.365 256.200 C 304.582 255.355,304.544 255.200,305.119 255.203 C 305.494 255.205,306.008 255.655,306.262 256.203 M318.182 256.400 C 318.552 256.400,318.646 256.688,318.479 257.300 C 318.278 258.032,318.205 258.069,318.087 257.500 C 318.007 257.115,317.685 256.800,317.371 256.800 C 317.042 256.800,316.805 256.418,316.812 255.900 C 316.823 255.096,316.868 255.075,317.232 255.700 C 317.456 256.085,317.884 256.400,318.182 256.400 M272.742 259.200 C 272.696 260.112,272.676 260.123,272.520 259.319 C 272.426 258.834,272.001 258.327,271.575 258.192 C 271.149 258.057,270.800 257.795,270.800 257.611 C 270.800 257.426,271.249 257.483,271.797 257.738 C 272.499 258.063,272.779 258.496,272.742 259.200 M252.800 259.451 C 252.800 259.492,252.440 259.431,252.000 259.316 C 251.560 259.201,251.200 258.859,251.200 258.557 C 251.200 258.137,251.387 258.168,252.000 258.693 C 252.440 259.070,252.800 259.411,252.800 259.451 M312.800 259.400 L 312.800 260.800 309.300 260.719 L 305.800 260.637 309.143 260.502 L 312.486 260.366 312.312 259.183 C 312.217 258.532,312.287 258.000,312.469 258.000 C 312.651 258.000,312.800 258.630,312.800 259.400 M149.200 259.200 C 149.200 259.420,148.939 259.600,148.620 259.600 C 148.301 259.600,147.856 259.915,147.632 260.300 C 147.265 260.930,147.223 260.913,147.212 260.128 C 147.204 259.536,147.490 259.200,148.100 259.082 C 148.595 258.987,149.045 258.884,149.100 258.854 C 149.155 258.825,149.200 258.980,149.200 259.200 M258.400 260.553 C 258.950 260.623,257.915 260.707,256.100 260.740 C 254.285 260.773,252.800 260.665,252.799 260.500 C 252.799 260.223,256.046 260.254,258.400 260.553 M265.467 260.267 C 265.077 260.656,265.141 262.316,265.555 262.572 C 266.142 262.935,266.885 261.697,266.606 260.819 C 266.341 259.983,265.943 259.790,265.467 260.267 M300.256 260.278 C 299.741 260.793,300.001 262.400,300.600 262.400 C 300.969 262.400,301.200 262.025,301.200 261.424 C 301.200 260.420,300.709 259.824,300.256 260.278 M284.512 260.692 C 283.584 260.776,281.964 260.777,280.912 260.695 C 279.860 260.612,280.620 260.543,282.600 260.542 C 284.580 260.541,285.440 260.608,284.512 260.692 M274.000 261.400 C 274.000 261.730,274.270 262.000,274.600 262.000 C 274.930 262.000,275.200 262.270,275.200 262.600 C 275.200 262.947,275.579 263.212,276.100 263.228 C 276.945 263.255,276.952 263.275,276.207 263.566 C 275.617 263.796,275.131 263.592,274.307 262.769 C 273.180 261.642,272.878 260.800,273.600 260.800 C 273.820 260.800,274.000 261.070,274.000 261.400 M90.800 262.000 C 90.800 262.220,91.070 262.400,91.400 262.400 C 91.730 262.400,92.000 262.220,92.000 262.000 C 92.000 261.780,91.730 261.600,91.400 261.600 C 91.070 261.600,90.800 261.780,90.800 262.000 M263.903 263.830 C 263.770 263.964,263.242 263.940,262.730 263.777 C 261.840 263.494,261.834 263.469,262.600 263.186 C 263.398 262.892,264.365 263.369,263.903 263.830 M144.300 263.632 C 143.915 263.856,143.600 264.301,143.600 264.620 C 143.600 264.939,143.445 265.200,143.255 265.200 C 143.066 265.200,142.997 264.750,143.102 264.200 C 143.236 263.500,143.549 263.204,144.147 263.212 C 144.918 263.223,144.933 263.263,144.300 263.632 M254.900 267.300 C 254.992 267.575,255.487 267.800,256.000 267.800 C 256.513 267.800,257.008 267.575,257.100 267.300 C 257.210 266.970,256.836 266.800,256.000 266.800 C 255.164 266.800,254.790 266.970,254.900 267.300 M281.600 267.400 C 281.600 267.865,281.891 268.017,282.612 267.927 C 283.169 267.857,283.625 267.620,283.625 267.400 C 283.625 267.180,283.169 266.943,282.612 266.873 C 281.891 266.783,281.600 266.935,281.600 267.400 " stroke="none" fill="#111008" fill-rule="evenodd"></path><path id="path1" d="M190.200 150.765 C 188.440 151.132,186.493 151.651,185.874 151.917 C 185.255 152.182,184.546 152.400,184.300 152.400 C 183.729 152.400,177.989 155.039,176.209 156.120 C 167.195 161.594,162.567 165.482,158.259 171.200 C 157.015 172.850,155.859 174.380,155.688 174.600 C 154.281 176.417,152.042 181.733,150.718 186.400 C 148.691 193.549,150.184 210.166,153.178 213.773 C 153.644 214.335,158.233 214.400,197.573 214.400 C 245.792 214.400,243.209 214.252,242.841 217.000 C 242.619 218.661,244.472 218.589,196.315 218.803 L 150.600 219.007 196.100 219.103 C 246.344 219.210,241.554 219.420,243.516 217.029 C 243.799 216.683,244.467 216.400,245.000 216.400 C 245.884 216.400,248.000 214.639,248.000 213.904 C 248.000 213.373,248.907 213.575,249.769 214.297 C 250.536 214.941,249.806 213.967,248.151 212.140 C 247.578 211.509,245.052 206.330,244.228 204.100 C 242.138 198.442,239.635 192.095,238.511 189.600 C 236.120 184.295,231.929 176.297,230.949 175.169 C 230.647 174.821,230.400 174.419,230.400 174.274 C 230.400 174.129,229.370 172.523,228.112 170.705 C 217.134 154.847,203.924 147.898,190.200 150.765 M193.579 158.574 C 194.200 159.323,193.419 160.902,192.516 160.724 C 191.482 160.521,190.962 159.368,191.572 158.634 C 192.226 157.846,192.956 157.825,193.579 158.574 M183.723 162.046 C 184.375 163.087,183.763 164.000,182.413 164.000 C 181.348 164.000,181.200 163.862,181.200 162.867 C 181.200 161.072,182.789 160.555,183.723 162.046 M191.920 166.080 C 193.100 167.260,192.235 168.646,190.577 168.230 C 189.420 167.940,189.256 166.640,190.300 166.032 C 191.209 165.503,191.347 165.507,191.920 166.080 M217.443 170.629 C 217.773 171.942,217.142 172.573,215.829 172.243 C 214.623 171.940,214.431 170.654,215.500 170.032 C 216.635 169.371,217.168 169.535,217.443 170.629 M252.553 170.221 C 252.690 170.579,252.622 170.738,252.393 170.595 C 252.174 170.460,251.881 170.644,251.743 171.004 C 251.561 171.479,251.211 171.589,250.476 171.405 C 249.655 171.199,249.546 171.253,249.907 171.688 C 250.193 172.033,250.221 172.438,249.983 172.813 C 249.314 173.871,249.549 176.627,250.400 177.709 C 250.840 178.269,251.200 178.833,251.200 178.963 C 251.200 179.269,252.728 180.800,253.033 180.800 C 253.161 180.800,254.106 181.473,255.133 182.295 C 259.621 185.888,260.352 187.210,260.644 192.260 C 260.930 197.201,261.101 197.839,263.859 204.260 C 265.061 207.060,263.785 209.865,259.400 214.063 C 257.899 215.500,258.512 216.123,261.168 215.859 C 269.426 215.037,270.586 197.519,263.341 183.036 C 260.995 178.347,256.440 172.400,255.195 172.400 C 254.829 172.400,253.141 170.921,253.174 170.630 C 253.260 169.872,253.150 169.600,252.757 169.600 C 252.514 169.600,252.422 169.879,252.553 170.221 M165.750 176.092 C 166.307 176.977,165.269 178.155,164.271 177.772 C 163.603 177.516,163.346 175.987,163.880 175.453 C 164.323 175.010,165.273 175.335,165.750 176.092 M224.320 176.838 C 224.477 178.180,223.454 179.109,222.600 178.400 C 221.873 177.796,221.808 176.146,222.500 175.860 C 223.496 175.449,224.202 175.828,224.320 176.838 M217.522 181.449 C 217.658 182.855,217.078 183.273,215.700 182.760 C 214.092 182.163,214.870 179.837,216.595 180.085 C 217.172 180.167,217.434 180.553,217.522 181.449 M171.663 182.918 C 172.374 184.026,170.443 185.266,169.381 184.384 C 168.674 183.798,168.639 183.121,169.281 182.479 C 169.792 181.968,171.223 182.232,171.663 182.918 M160.200 184.195 C 160.200 185.510,159.189 186.021,158.203 185.203 C 157.367 184.509,158.267 182.724,159.373 182.882 C 159.998 182.971,160.200 183.292,160.200 184.195 M274.139 212.379 C 273.884 213.292,273.844 213.305,273.536 212.579 C 273.223 211.838,273.211 211.837,273.303 212.561 C 273.359 212.996,273.776 213.378,274.280 213.455 C 275.430 213.630,275.718 213.106,274.994 212.159 C 274.434 211.427,274.403 211.435,274.139 212.379 M126.400 213.606 C 125.867 213.956,125.867 214.044,126.400 214.394 C 127.299 214.984,127.600 214.886,127.600 214.000 C 127.600 213.114,127.299 213.016,126.400 213.606 M285.450 215.119 C 285.342 215.295,285.438 215.700,285.664 216.019 C 285.992 216.482,286.026 216.449,285.833 215.855 C 285.651 215.295,285.746 215.170,286.216 215.351 C 286.576 215.489,286.738 215.423,286.597 215.195 C 286.303 214.719,285.721 214.680,285.450 215.119 M251.800 216.721 C 252.680 217.666,254.152 218.881,255.071 219.420 C 257.597 220.901,257.678 220.594,255.191 218.968 C 253.986 218.180,252.370 216.965,251.600 216.268 C 250.374 215.159,250.399 215.215,251.800 216.721 M258.600 220.826 C 259.040 221.001,259.940 221.144,260.600 221.144 C 261.260 221.144,262.160 221.001,262.600 220.826 C 263.110 220.624,262.386 220.509,260.600 220.509 C 258.814 220.509,258.090 220.624,258.600 220.826 M131.381 224.370 C 131.507 224.573,131.293 224.822,130.905 224.923 C 130.368 225.063,130.415 225.118,131.100 225.154 C 131.654 225.182,132.000 224.969,132.000 224.600 C 132.000 224.270,131.809 224.000,131.576 224.000 C 131.343 224.000,131.256 224.166,131.381 224.370 M139.800 225.600 C 139.198 226.574,140.471 227.135,141.600 226.394 C 142.133 226.044,142.133 225.956,141.600 225.606 C 140.826 225.098,140.112 225.095,139.800 225.600 M267.800 225.600 C 267.198 226.574,268.471 227.135,269.600 226.394 C 270.133 226.044,270.133 225.956,269.600 225.606 C 268.826 225.098,268.112 225.095,267.800 225.600 M155.300 227.076 C 155.685 227.176,156.315 227.176,156.700 227.076 C 157.085 226.975,156.770 226.893,156.000 226.893 C 155.230 226.893,154.915 226.975,155.300 227.076 M248.255 227.400 C 248.382 227.730,248.848 228.000,249.292 228.000 C 249.963 228.000,250.015 227.900,249.600 227.400 C 249.326 227.070,248.860 226.800,248.564 226.800 C 248.249 226.800,248.121 227.050,248.255 227.400 M184.255 228.600 C 184.121 228.950,184.249 229.200,184.564 229.200 C 184.860 229.200,185.326 228.930,185.600 228.600 C 186.015 228.100,185.963 228.000,185.292 228.000 C 184.848 228.000,184.382 228.270,184.255 228.600 M225.200 228.600 C 225.474 228.930,225.968 229.200,226.298 229.200 C 226.786 229.200,226.805 229.088,226.400 228.600 C 226.126 228.270,225.632 228.000,225.302 228.000 C 224.814 228.000,224.795 228.112,225.200 228.600 M194.300 229.095 C 195.455 229.176,197.345 229.176,198.500 229.095 C 199.655 229.014,198.710 228.948,196.400 228.948 C 194.090 228.948,193.145 229.014,194.300 229.095 M211.100 229.095 C 212.255 229.176,214.145 229.176,215.300 229.095 C 216.455 229.014,215.510 228.948,213.200 228.948 C 210.890 228.948,209.945 229.014,211.100 229.095 " stroke="none" fill="#e6be6b" fill-rule="evenodd"></path><path id="path2" d="M189.709 140.655 C 187.823 141.585,185.200 144.580,185.200 145.804 C 185.200 147.145,185.900 147.361,188.499 146.821 C 189.681 146.576,192.347 146.296,194.424 146.199 C 199.189 145.978,199.613 145.542,197.298 143.250 C 194.078 140.062,192.208 139.423,189.709 140.655 M190.600 149.615 C 189.940 149.799,188.680 150.142,187.800 150.377 C 185.149 151.087,181.970 152.270,181.530 152.710 C 181.303 152.937,182.350 152.688,183.858 152.157 C 192.725 149.030,200.933 148.885,207.040 151.745 C 210.293 153.268,211.554 153.928,213.200 154.965 C 219.617 159.010,226.826 167.125,232.121 176.265 C 232.738 177.329,233.401 178.470,233.593 178.800 C 234.206 179.849,238.278 188.129,239.102 190.000 C 239.537 190.990,240.188 192.457,240.547 193.260 C 240.906 194.064,241.200 194.904,241.200 195.128 C 241.200 195.352,241.456 196.045,241.768 196.668 C 242.081 197.290,242.598 198.520,242.918 199.400 C 244.752 204.449,245.417 206.082,246.714 208.713 C 247.503 210.315,248.393 211.829,248.693 212.077 C 249.316 212.594,248.104 210.169,247.300 209.290 C 247.025 208.989,246.800 208.418,246.800 208.020 C 246.800 207.623,246.549 207.090,246.242 206.835 C 245.935 206.580,245.560 205.712,245.409 204.906 C 245.258 204.100,244.879 203.077,244.567 202.631 C 244.255 202.186,244.000 201.508,244.000 201.125 C 244.000 200.439,243.265 198.499,242.161 196.268 C 241.852 195.645,241.600 194.944,241.600 194.711 C 241.600 194.293,240.238 191.161,239.550 190.000 C 239.355 189.670,239.095 189.130,238.972 188.800 C 238.850 188.470,238.126 186.940,237.364 185.400 C 236.603 183.860,235.984 182.375,235.990 182.100 C 235.995 181.825,235.832 181.600,235.627 181.600 C 235.422 181.600,235.130 181.195,234.979 180.700 C 233.440 175.651,223.276 162.327,217.400 157.655 C 215.860 156.431,214.362 155.198,214.071 154.915 C 213.781 154.632,213.385 154.400,213.191 154.400 C 212.998 154.400,212.066 153.883,211.120 153.250 C 210.174 152.618,208.950 151.966,208.400 151.801 C 207.850 151.637,207.220 151.365,207.000 151.197 C 206.780 151.030,205.970 150.765,205.200 150.610 C 204.430 150.454,203.029 150.073,202.086 149.764 C 200.205 149.145,192.643 149.048,190.600 149.615 M178.800 153.800 C 178.526 154.130,178.074 154.400,177.795 154.400 C 177.517 154.400,176.864 154.757,176.344 155.192 C 175.682 155.748,176.095 155.636,177.723 154.818 C 179.001 154.176,180.261 153.564,180.523 153.457 C 180.785 153.350,180.617 153.249,180.149 153.232 C 179.681 153.214,179.074 153.470,178.800 153.800 M171.800 157.883 C 164.220 162.970,156.569 170.519,154.656 174.800 C 154.410 175.350,153.982 176.038,153.705 176.329 C 153.427 176.619,153.200 177.182,153.200 177.580 C 153.200 177.977,152.930 178.526,152.600 178.800 C 152.270 179.074,152.000 179.596,152.000 179.960 C 152.000 180.324,151.745 180.986,151.433 181.431 C 151.121 181.877,150.738 182.952,150.581 183.820 C 150.424 184.689,150.112 185.632,149.887 185.914 C 149.662 186.197,149.428 187.817,149.366 189.514 L 149.255 192.600 149.600 190.000 C 150.093 186.281,152.158 179.682,153.133 178.707 C 153.390 178.450,153.600 178.018,153.600 177.748 C 153.600 174.457,163.568 163.873,171.915 158.300 C 173.810 157.035,175.189 156.001,174.980 156.002 C 174.771 156.003,173.340 156.849,171.800 157.883 M192.026 158.776 C 191.542 159.082,191.536 159.241,191.991 159.790 C 192.464 160.359,192.604 160.367,193.113 159.858 C 194.073 158.898,193.202 158.031,192.026 158.776 M225.600 160.371 C 225.600 160.827,225.744 161.200,225.920 161.200 C 226.477 161.200,233.891 171.315,234.862 173.400 C 235.067 173.840,235.452 174.561,235.717 175.002 C 235.983 175.444,236.884 177.019,237.720 178.502 C 238.555 179.986,239.365 181.197,239.520 181.194 C 240.617 181.170,241.709 178.508,242.268 174.491 C 242.807 170.617,239.833 164.968,236.033 162.652 C 232.032 160.213,225.600 158.807,225.600 160.371 M181.600 162.571 C 181.600 163.345,181.805 163.600,182.428 163.600 C 183.057 163.600,183.225 163.385,183.128 162.704 C 182.938 161.375,181.600 161.258,181.600 162.571 M190.598 166.552 C 189.753 167.170,190.112 168.000,191.224 168.000 C 191.725 168.000,192.000 167.725,192.000 167.224 C 192.000 166.173,191.466 165.917,190.598 166.552 M154.476 166.673 C 152.912 167.299,150.800 170.348,150.800 171.980 C 150.800 173.527,152.499 172.375,154.014 169.800 C 154.532 168.920,155.184 168.060,155.461 167.889 C 155.739 167.719,155.865 167.314,155.741 166.989 C 155.503 166.371,155.335 166.329,154.476 166.673 M215.815 170.539 C 215.410 170.836,215.206 171.286,215.362 171.539 C 215.797 172.243,216.408 172.088,216.124 171.345 C 215.950 170.892,216.046 170.754,216.436 170.895 C 216.746 171.008,216.951 171.316,216.890 171.580 C 216.830 171.844,216.965 171.945,217.191 171.805 C 217.472 171.632,217.471 171.306,217.187 170.776 C 216.693 169.853,216.743 169.861,215.815 170.539 M255.400 172.122 C 261.392 174.924,268.777 191.696,268.795 202.542 C 268.810 211.461,263.328 218.553,258.493 215.868 C 257.598 215.371,257.620 215.329,260.122 212.727 C 264.089 208.600,264.829 205.014,262.376 201.800 C 261.228 200.296,260.400 196.765,260.400 193.372 C 260.400 188.713,259.291 186.269,256.000 183.677 C 250.130 179.054,248.992 177.428,249.363 174.200 L 249.593 172.200 249.005 173.800 C 248.061 176.370,249.298 178.703,253.372 182.040 C 259.241 186.847,260.000 188.215,260.000 193.992 C 260.000 196.202,260.169 198.323,260.375 198.705 C 262.645 202.907,263.528 206.311,262.824 208.147 C 262.257 209.625,259.579 213.108,258.799 213.381 C 257.291 213.909,257.027 215.297,258.249 216.275 C 261.417 218.810,266.203 215.402,268.467 209.000 C 269.269 206.732,269.494 198.425,268.802 196.607 C 268.584 196.032,268.243 194.625,268.044 193.481 C 267.654 191.232,267.034 189.258,266.156 187.468 C 265.850 186.845,265.600 186.125,265.599 185.868 C 265.594 182.944,257.890 172.324,255.400 171.809 L 254.200 171.560 255.400 172.122 M164.044 176.147 C 163.698 176.564,163.738 176.817,164.212 177.210 C 164.977 177.844,165.830 177.175,165.466 176.227 C 165.169 175.455,164.643 175.425,164.044 176.147 M222.543 176.605 C 222.275 177.302,223.117 178.499,223.645 178.172 C 223.840 178.051,223.986 177.648,223.968 177.276 C 223.949 176.856,223.860 176.790,223.734 177.102 C 223.623 177.379,223.367 177.503,223.166 177.379 C 222.579 177.016,222.743 176.474,223.500 176.276 C 224.156 176.104,224.155 176.090,223.487 176.046 C 223.096 176.021,222.670 176.272,222.543 176.605 M244.880 180.080 C 244.616 180.344,244.400 180.811,244.400 181.118 C 244.400 181.425,243.845 182.688,243.166 183.925 L 241.932 186.174 243.212 189.187 C 243.917 190.844,244.742 192.767,245.047 193.460 C 245.351 194.154,245.600 194.846,245.600 195.000 C 245.600 195.154,245.843 195.846,246.140 196.540 C 247.099 198.776,248.400 202.207,248.400 202.499 C 248.400 203.088,251.234 208.666,252.312 210.198 C 253.903 212.460,254.415 212.396,257.178 209.590 C 259.755 206.973,259.988 206.269,258.943 204.262 C 258.581 203.568,258.104 202.644,257.883 202.209 C 256.976 200.429,256.302 197.172,256.043 193.310 C 255.730 188.657,255.359 188.033,251.289 185.316 C 249.175 183.906,246.400 180.921,246.400 180.059 C 246.400 179.458,245.489 179.471,244.880 180.080 M215.867 180.667 C 215.365 181.168,215.599 182.425,216.240 182.671 C 217.081 182.994,217.648 182.037,217.158 181.122 C 216.755 180.368,216.319 180.215,215.867 180.667 M216.842 182.118 C 216.328 182.632,215.807 182.235,216.188 181.620 C 216.335 181.382,216.639 181.300,216.862 181.439 C 217.136 181.607,217.129 181.831,216.842 182.118 M169.334 183.027 C 169.018 183.851,169.692 184.493,170.533 184.170 C 171.377 183.846,171.397 182.961,170.567 182.643 C 169.677 182.301,169.604 182.324,169.334 183.027 M170.430 183.310 C 170.381 183.788,169.832 183.696,169.660 183.180 C 169.572 182.916,169.716 182.772,169.980 182.860 C 170.244 182.948,170.447 183.151,170.430 183.310 M158.649 183.816 C 158.512 184.173,158.400 184.611,158.400 184.790 C 158.400 185.299,159.547 185.609,159.817 185.173 C 159.950 184.957,159.844 184.830,159.580 184.890 C 159.316 184.951,159.008 184.746,158.895 184.436 C 158.751 184.037,158.892 183.950,159.379 184.137 C 159.820 184.306,160.010 184.230,159.908 183.925 C 159.657 183.170,158.922 183.106,158.649 183.816 M148.893 195.600 C 148.843 202.023,149.934 208.972,151.415 211.662 C 151.737 212.246,152.000 213.065,152.000 213.482 C 152.000 215.246,150.806 215.200,196.906 215.200 C 229.558 215.200,241.077 215.320,241.726 215.665 C 242.516 216.086,242.547 216.067,242.051 215.465 C 241.545 214.852,238.056 214.800,197.651 214.794 C 173.006 214.790,153.556 214.633,153.242 214.435 C 152.705 214.094,151.918 212.308,151.201 209.800 C 149.913 205.298,149.554 203.160,149.255 198.200 C 149.037 194.592,148.908 193.667,148.893 195.600 M143.600 211.586 C 143.600 211.798,143.942 212.155,144.361 212.379 C 145.008 212.725,145.090 212.668,144.914 211.993 C 144.707 211.200,143.600 210.857,143.600 211.586 " stroke="none" fill="#a13e2a" fill-rule="evenodd"></path><path id="path3" d="M138.800 210.693 C 138.250 210.794,137.585 211.053,137.321 211.270 C 137.058 211.486,135.336 211.701,133.494 211.748 C 129.751 211.844,128.078 212.727,128.510 214.379 C 128.639 214.871,128.565 215.102,128.325 214.954 C 128.105 214.818,128.007 214.277,128.107 213.753 C 128.308 212.699,125.574 212.272,124.962 213.262 C 124.778 213.559,124.853 213.615,125.172 213.417 C 125.521 213.201,125.628 213.380,125.534 214.024 C 125.460 214.526,125.171 214.983,124.890 215.039 C 124.610 215.094,124.559 215.050,124.778 214.941 C 125.653 214.503,124.239 213.691,123.326 214.106 C 122.156 214.640,121.895 215.438,122.646 216.188 C 123.194 216.737,123.160 216.800,122.309 216.800 C 121.787 216.800,121.164 216.604,120.925 216.365 C 120.612 216.052,120.402 216.073,120.174 216.442 C 119.992 216.737,120.057 217.019,120.329 217.110 C 120.588 217.196,120.785 217.837,120.767 218.533 L 120.735 219.800 120.129 218.409 C 119.519 217.009,118.400 217.429,118.400 219.058 C 118.400 219.619,120.246 221.600,120.769 221.600 C 120.952 221.600,121.332 221.878,121.614 222.217 C 121.969 222.645,122.254 222.706,122.543 222.417 C 123.491 221.469,125.680 222.900,124.990 224.016 C 124.860 224.227,125.213 224.400,125.776 224.400 C 126.339 224.400,126.803 224.625,126.806 224.900 C 126.811 225.268,126.903 225.257,127.156 224.857 C 127.396 224.479,127.583 224.449,127.774 224.757 C 127.924 225.001,127.902 225.218,127.724 225.240 C 127.546 225.262,127.850 225.424,128.400 225.600 C 129.850 226.064,131.600 226.064,131.600 225.600 C 131.600 225.380,131.285 225.187,130.900 225.172 C 130.264 225.146,130.268 225.117,130.939 224.853 C 132.186 224.362,130.706 223.517,128.837 223.652 C 127.956 223.715,127.106 223.640,126.950 223.484 C 126.794 223.328,128.092 223.221,129.833 223.246 C 131.575 223.272,132.712 223.370,132.359 223.464 C 131.640 223.657,131.782 225.600,132.515 225.600 C 132.747 225.600,133.285 225.915,133.710 226.300 C 135.162 227.614,143.961 227.568,145.395 226.239 C 146.561 225.159,147.025 224.913,146.600 225.600 C 146.445 225.851,147.443 226.023,149.276 226.061 L 152.200 226.122 149.733 226.361 C 146.935 226.632,146.275 227.027,147.330 227.798 C 148.069 228.339,161.597 228.618,164.100 228.145 C 166.406 227.708,165.346 226.662,162.200 226.270 C 161.540 226.187,162.408 226.093,164.129 226.060 C 166.455 226.015,167.413 226.156,167.865 226.608 C 168.589 227.332,240.000 227.507,240.000 226.784 C 240.000 226.573,240.191 226.400,240.424 226.400 C 240.657 226.400,240.722 226.603,240.568 226.852 C 240.397 227.129,240.504 227.226,240.844 227.102 C 241.150 226.991,241.355 226.697,241.300 226.450 C 241.231 226.139,242.502 226.000,245.424 226.000 C 248.256 226.000,249.562 226.138,249.389 226.418 C 249.247 226.647,249.349 227.097,249.615 227.418 C 250.011 227.895,249.950 228.000,249.276 228.000 C 248.805 228.000,248.345 227.658,248.200 227.200 C 247.862 226.135,245.096 226.064,244.323 227.100 C 243.831 227.758,241.496 227.800,205.200 227.800 C 168.390 227.800,164.539 227.899,165.462 228.822 C 166.407 229.767,183.881 229.805,184.180 228.862 C 184.344 228.348,184.785 228.000,185.276 228.000 C 185.950 228.000,186.011 228.105,185.615 228.582 C 184.496 229.930,185.469 230.000,205.400 230.000 C 225.331 230.000,226.304 229.930,225.185 228.582 C 224.797 228.115,224.825 228.000,225.328 228.000 C 225.673 228.000,226.227 228.389,226.560 228.864 C 227.278 229.889,242.962 229.736,243.800 228.696 C 244.099 228.326,246.176 228.224,252.000 228.295 C 260.638 228.400,262.400 228.247,262.400 227.389 C 262.400 226.755,261.508 226.479,258.800 226.275 C 257.736 226.195,258.277 226.111,260.124 226.070 C 262.123 226.025,263.157 225.854,262.996 225.593 C 262.857 225.369,263.412 225.639,264.228 226.193 C 266.383 227.655,276.000 227.547,276.000 226.061 C 276.000 225.917,277.555 225.789,279.455 225.776 C 282.711 225.753,282.965 225.689,283.853 224.657 C 284.742 223.622,284.469 222.079,283.500 222.666 C 283.335 222.765,283.200 222.657,283.200 222.424 C 283.200 222.191,283.427 222.000,283.704 222.000 C 284.343 222.000,285.305 223.507,284.990 224.016 C 284.241 225.229,286.377 224.096,288.038 222.400 C 289.115 221.300,290.158 220.400,290.355 220.400 C 291.163 220.400,291.199 218.995,290.417 217.938 C 289.968 217.330,289.600 216.743,289.600 216.634 C 289.600 216.525,289.142 215.978,288.582 215.418 C 287.172 214.008,285.614 214.097,286.800 215.520 C 287.091 215.869,287.069 215.891,286.720 215.600 C 286.025 215.021,285.590 215.109,285.846 215.777 C 285.968 216.094,286.457 216.429,286.934 216.522 L 287.800 216.691 286.914 216.746 C 285.801 216.814,284.930 215.408,285.591 214.610 C 286.731 213.237,282.227 212.139,280.576 213.387 C 280.149 213.710,279.170 213.962,278.400 213.946 L 277.000 213.918 278.320 213.605 C 280.097 213.185,280.350 212.845,279.403 212.153 C 278.213 211.283,274.745 211.550,275.240 212.475 C 275.774 213.472,274.804 213.889,274.108 212.961 C 273.552 212.219,273.541 212.219,273.669 213.000 C 273.772 213.629,273.544 213.829,272.600 213.935 C 271.739 214.032,270.710 214.794,268.955 216.635 C 267.611 218.046,266.383 219.200,266.227 219.200 C 266.071 219.200,265.707 219.436,265.418 219.725 C 262.462 222.680,255.370 220.812,251.091 215.950 C 249.248 213.856,248.000 213.030,248.000 213.904 C 248.000 214.639,245.884 216.400,245.000 216.400 C 244.467 216.400,243.799 216.683,243.516 217.029 C 241.556 219.418,246.282 219.200,196.433 219.200 C 171.591 219.200,150.969 219.086,150.607 218.947 C 150.245 218.809,149.391 217.504,148.708 216.047 C 147.143 212.709,147.336 212.813,142.700 212.806 C 140.422 212.803,138.800 212.637,138.800 212.408 C 138.800 212.175,139.509 212.112,140.547 212.255 C 142.268 212.491,143.321 211.969,142.345 211.366 C 142.052 211.185,141.984 211.250,142.162 211.538 C 142.349 211.841,142.095 212.000,141.424 212.000 C 140.861 212.000,140.400 211.809,140.400 211.576 C 140.400 211.343,140.175 211.280,139.900 211.435 C 139.558 211.628,139.527 211.583,139.800 211.293 C 140.020 211.059,140.650 210.787,141.200 210.688 C 142.063 210.533,142.036 210.509,141.000 210.509 C 140.340 210.509,139.350 210.592,138.800 210.693 M127.600 214.000 C 127.600 214.886,127.299 214.984,126.400 214.394 C 125.867 214.044,125.867 213.956,126.400 213.606 C 127.299 213.016,127.600 213.114,127.600 214.000 M132.400 213.803 C 132.400 213.865,131.692 213.983,130.827 214.066 C 129.717 214.172,129.362 214.087,129.620 213.776 C 129.921 213.413,132.400 213.437,132.400 213.803 M286.800 222.000 C 286.470 222.213,285.840 222.373,285.400 222.354 C 284.741 222.326,284.776 222.264,285.600 222.000 C 287.014 221.547,287.501 221.547,286.800 222.000 M123.185 222.809 C 122.745 223.081,122.743 223.249,123.175 223.770 C 123.806 224.530,124.248 224.573,124.507 223.898 C 124.779 223.188,123.833 222.409,123.185 222.809 M281.300 223.493 C 280.365 223.577,278.835 223.577,277.900 223.493 C 276.965 223.409,277.730 223.340,279.600 223.340 C 281.470 223.340,282.235 223.409,281.300 223.493 M135.737 224.900 C 135.482 225.316,133.600 225.279,133.600 224.857 C 133.600 224.669,134.122 224.534,134.761 224.557 C 135.399 224.581,135.838 224.735,135.737 224.900 M275.600 224.900 C 275.600 225.065,275.251 225.200,274.824 225.200 C 274.397 225.200,273.964 225.065,273.862 224.900 C 273.760 224.735,274.109 224.600,274.638 224.600 C 275.167 224.600,275.600 224.735,275.600 224.900 M141.600 225.606 C 142.133 225.956,142.133 226.044,141.600 226.394 C 140.471 227.135,139.198 226.574,139.800 225.600 C 140.112 225.095,140.826 225.098,141.600 225.606 M269.600 225.606 C 270.133 225.956,270.133 226.044,269.600 226.394 C 268.826 226.902,268.112 226.905,267.800 226.400 C 267.198 225.426,268.471 224.865,269.600 225.606 M156.700 227.076 C 156.315 227.176,155.685 227.176,155.300 227.076 C 154.915 226.975,155.230 226.893,156.000 226.893 C 156.770 226.893,157.085 226.975,156.700 227.076 M260.295 227.077 C 259.907 227.178,259.693 227.427,259.819 227.630 C 259.944 227.834,259.777 228.000,259.447 228.000 C 259.117 228.000,258.745 227.835,258.621 227.634 C 258.354 227.203,259.076 226.857,260.200 226.878 C 260.869 226.890,260.884 226.923,260.295 227.077 M178.582 228.371 C 178.839 228.787,177.274 229.407,176.903 229.037 C 176.773 228.906,176.887 228.800,177.157 228.800 C 177.427 228.800,177.536 228.620,177.400 228.400 C 177.264 228.180,177.423 228.000,177.753 228.000 C 178.083 228.000,178.456 228.167,178.582 228.371 M231.800 228.400 C 231.664 228.620,231.863 228.800,232.243 228.800 C 232.623 228.800,232.822 228.912,232.685 229.048 C 232.293 229.440,230.340 228.820,230.607 228.388 C 230.739 228.175,231.117 228.000,231.447 228.000 C 231.777 228.000,231.936 228.180,231.800 228.400 M198.500 229.095 C 197.345 229.176,195.455 229.176,194.300 229.095 C 193.145 229.014,194.090 228.948,196.400 228.948 C 198.710 228.948,199.655 229.014,198.500 229.095 M215.300 229.095 C 214.145 229.176,212.255 229.176,211.100 229.095 C 209.945 229.014,210.890 228.948,213.200 228.948 C 215.510 228.948,216.455 229.014,215.300 229.095 " stroke="none" fill="#f2f2f2" fill-rule="evenodd"></path><path id="path4" d="M207.574 144.306 C 204.265 146.035,204.479 146.731,208.800 148.311 C 210.010 148.753,211.270 149.231,211.600 149.373 C 212.843 149.908,215.562 151.688,218.400 153.824 C 220.566 155.455,220.662 155.484,224.633 155.699 C 228.586 155.913,232.279 156.710,234.532 157.835 C 235.155 158.146,235.907 158.400,236.204 158.400 C 236.500 158.400,236.981 158.625,237.271 158.900 C 237.562 159.175,238.533 159.897,239.428 160.505 C 240.324 161.112,241.454 162.147,241.940 162.805 C 243.047 164.302,243.600 164.325,243.600 162.875 C 243.600 161.509,242.666 160.449,240.575 159.441 C 239.709 159.024,238.730 158.529,238.400 158.340 C 238.070 158.152,237.440 157.838,237.000 157.641 C 235.714 157.068,234.528 155.507,234.248 154.021 C 233.684 151.027,233.281 150.801,228.491 150.795 C 222.101 150.787,218.296 149.448,213.817 145.631 C 212.507 144.514,211.307 143.600,211.150 143.600 C 210.993 143.600,210.614 143.503,210.306 143.385 C 209.999 143.267,208.769 143.682,207.574 144.306 M170.142 147.138 C 169.514 147.764,168.124 149.191,167.054 150.310 C 165.971 151.441,163.951 152.934,162.502 153.672 C 161.069 154.402,159.605 155.419,159.249 155.931 C 156.885 159.326,154.362 161.515,152.490 161.794 C 148.638 162.369,146.800 164.136,146.800 167.264 C 146.800 168.605,144.548 171.951,141.554 175.057 C 137.956 178.790,137.852 179.928,140.720 184.164 C 144.241 189.364,144.587 191.069,142.955 195.149 C 141.788 198.067,141.967 200.037,143.765 204.074 C 145.020 206.891,147.085 206.980,145.968 204.169 C 144.479 200.418,145.292 188.614,147.492 182.054 C 148.469 179.141,148.472 179.082,147.789 176.909 C 146.479 172.744,147.506 168.081,150.414 164.985 C 150.923 164.443,151.495 164.000,151.686 164.000 C 151.876 164.000,152.522 163.638,153.122 163.195 C 153.909 162.613,155.125 162.319,157.511 162.135 C 160.743 161.886,160.858 161.840,163.001 159.965 C 166.724 156.707,170.979 153.959,177.772 150.426 C 180.930 148.783,180.025 147.742,174.400 146.551 C 171.122 145.856,171.478 145.807,170.142 147.138 M190.800 150.097 C 189.810 150.324,189.225 150.590,189.500 150.688 C 189.774 150.786,190.908 150.671,192.019 150.433 C 195.740 149.635,203.533 150.453,206.274 151.929 C 206.754 152.188,207.384 152.399,207.674 152.398 C 208.880 152.392,205.693 151.157,202.537 150.408 C 198.852 149.532,193.848 149.400,190.800 150.097 M184.800 151.861 L 183.400 152.426 184.788 152.206 C 185.551 152.084,186.352 151.808,186.567 151.593 C 187.086 151.074,186.544 151.157,184.800 151.861 M178.793 154.327 C 170.225 158.600,162.476 164.806,157.540 171.349 C 156.233 173.080,155.287 174.610,155.437 174.749 C 155.587 174.887,155.790 174.774,155.889 174.497 C 157.421 170.207,166.308 162.168,176.209 156.117 C 177.519 155.316,181.126 153.600,181.499 153.600 C 181.690 153.600,182.196 153.336,182.624 153.013 C 184.065 151.923,182.620 152.418,178.793 154.327 M208.976 153.013 C 209.404 153.336,209.933 153.600,210.153 153.600 C 210.373 153.600,210.204 153.336,209.776 153.013 C 209.349 152.690,208.820 152.425,208.600 152.425 C 208.380 152.425,208.549 152.690,208.976 153.013 M210.977 153.962 C 211.100 154.161,212.055 154.822,213.100 155.431 C 217.297 157.877,223.981 164.665,227.998 170.560 C 229.152 172.253,230.186 173.547,230.296 173.437 C 230.406 173.327,229.971 172.554,229.329 171.718 C 228.687 170.883,227.869 169.733,227.512 169.161 C 226.873 168.140,222.162 162.556,220.599 160.967 C 217.633 157.952,210.015 152.406,210.977 153.962 M191.572 158.634 C 190.962 159.368,191.482 160.521,192.516 160.724 C 193.419 160.902,194.200 159.323,193.579 158.574 C 192.956 157.825,192.226 157.846,191.572 158.634 M193.424 158.838 C 193.936 159.667,192.616 160.543,191.991 159.790 C 191.536 159.241,191.542 159.082,192.026 158.776 C 192.784 158.296,193.097 158.310,193.424 158.838 M181.484 161.450 C 181.328 161.606,181.200 162.243,181.200 162.867 C 181.200 164.197,183.398 164.591,183.876 163.346 C 184.356 162.096,182.393 160.541,181.484 161.450 M183.128 162.704 C 183.225 163.385,183.057 163.600,182.428 163.600 C 181.805 163.600,181.600 163.345,181.600 162.571 C 181.600 161.258,182.938 161.375,183.128 162.704 M190.300 166.032 C 189.256 166.640,189.420 167.940,190.577 168.230 C 192.235 168.646,193.100 167.260,191.920 166.080 C 191.347 165.507,191.209 165.503,190.300 166.032 M192.000 167.224 C 192.000 167.725,191.725 168.000,191.224 168.000 C 190.112 168.000,189.753 167.170,190.598 166.552 C 191.466 165.917,192.000 166.173,192.000 167.224 M251.300 169.239 C 250.805 169.423,250.400 169.837,250.400 170.158 C 250.400 170.479,250.085 170.807,249.700 170.887 C 249.131 171.005,249.169 171.078,249.901 171.279 C 250.400 171.416,250.701 171.364,250.577 171.163 C 250.454 170.963,250.723 170.800,251.176 170.800 C 251.733 170.800,252.000 170.541,252.000 170.000 C 252.000 169.093,252.848 169.093,253.297 170.000 C 253.522 170.455,253.570 170.416,253.497 169.838 C 253.386 168.967,252.604 168.754,251.300 169.239 M215.500 170.032 C 214.431 170.654,214.623 171.940,215.829 172.243 C 216.395 172.385,217.039 172.321,217.260 172.100 C 217.528 171.832,217.335 171.762,216.677 171.887 C 215.389 172.134,214.843 171.251,215.834 170.526 C 216.492 170.044,216.663 170.065,217.149 170.686 C 217.682 171.368,217.696 171.367,217.454 170.667 C 217.314 170.264,217.200 169.859,217.200 169.767 C 217.200 169.463,216.212 169.617,215.500 170.032 M255.842 172.900 C 259.265 175.579,262.397 180.313,264.939 186.647 C 265.723 188.601,266.372 189.908,266.382 189.551 C 266.480 185.974,257.533 172.000,255.145 172.000 C 254.896 172.000,255.209 172.405,255.842 172.900 M230.400 174.220 C 230.400 174.394,230.647 174.821,230.949 175.169 C 231.465 175.763,233.044 178.534,234.577 181.537 C 234.952 182.273,235.336 182.797,235.431 182.703 C 235.525 182.608,235.166 181.736,234.633 180.765 C 234.100 179.794,233.168 178.051,232.562 176.891 C 231.524 174.904,230.400 173.515,230.400 174.220 M249.371 175.716 C 249.493 177.452,250.603 179.530,251.128 179.005 C 251.238 178.895,250.996 178.437,250.589 177.988 C 250.183 177.539,249.712 176.413,249.544 175.486 L 249.237 173.800 249.371 175.716 M154.300 176.214 C 153.915 176.729,153.601 177.387,153.601 177.675 C 153.602 177.964,153.972 177.595,154.423 176.855 C 155.386 175.275,155.308 174.867,154.300 176.214 M163.880 175.453 C 163.339 175.995,163.607 176.493,164.182 176.015 C 164.845 175.465,165.600 175.777,165.600 176.600 C 165.600 177.423,164.845 177.735,164.182 177.185 C 163.839 176.900,163.600 176.869,163.600 177.108 C 163.600 177.845,164.924 178.047,165.564 177.407 C 166.039 176.932,166.083 176.621,165.750 176.092 C 165.273 175.335,164.323 175.010,163.880 175.453 M222.500 175.860 C 221.808 176.146,221.873 177.796,222.600 178.400 C 223.454 179.109,224.477 178.180,224.320 176.838 C 224.202 175.828,223.496 175.449,222.500 175.860 M224.000 176.976 C 224.000 178.196,223.445 178.577,222.801 177.801 C 222.201 177.078,222.552 176.000,223.387 176.000 C 223.770 176.000,224.000 176.366,224.000 176.976 M152.873 178.887 C 152.613 179.147,152.400 179.634,152.400 179.969 C 152.400 180.387,152.601 180.291,153.041 179.663 C 153.743 178.661,153.628 178.132,152.873 178.887 M215.232 180.561 C 214.662 181.249,214.785 182.462,215.448 182.683 C 215.726 182.775,215.825 182.466,215.710 181.863 C 215.465 180.581,216.352 180.054,217.097 181.039 C 217.658 181.782,217.668 181.781,217.532 181.000 C 217.360 180.018,215.912 179.742,215.232 180.561 M151.488 182.476 C 150.203 186.186,149.603 188.737,149.660 190.235 C 149.710 191.540,149.745 191.601,149.870 190.600 C 150.114 188.653,151.228 184.317,151.901 182.696 C 152.244 181.869,152.426 181.093,152.305 180.972 C 152.184 180.850,151.816 181.527,151.488 182.476 M253.643 181.713 C 254.217 182.201,255.542 183.301,256.588 184.158 C 257.762 185.119,258.854 186.497,259.441 187.758 C 259.964 188.881,260.394 189.461,260.396 189.047 C 260.404 187.481,258.401 184.912,255.133 182.295 C 253.150 180.708,251.876 180.210,253.643 181.713 M169.281 182.479 C 168.639 183.121,168.674 183.798,169.381 184.384 C 170.443 185.266,172.374 184.026,171.663 182.918 C 171.223 182.232,169.792 181.968,169.281 182.479 M170.567 182.643 C 171.397 182.961,171.377 183.846,170.533 184.170 C 169.692 184.493,169.018 183.851,169.334 183.027 C 169.604 182.324,169.677 182.301,170.567 182.643 M158.103 183.733 C 157.648 184.731,158.061 185.607,158.980 185.594 C 159.211 185.591,159.156 185.433,158.857 185.244 C 158.511 185.024,158.415 184.584,158.591 184.028 C 158.963 182.857,159.804 183.213,159.785 184.534 C 159.776 185.136,159.919 185.441,160.118 185.242 C 160.311 185.049,160.407 184.467,160.334 183.946 C 160.145 182.608,158.680 182.468,158.103 183.733 M235.600 183.291 C 235.600 183.740,238.362 188.987,238.381 188.573 C 238.391 188.338,237.863 187.097,237.207 185.813 C 236.039 183.531,235.600 182.841,235.600 183.291 M238.413 189.424 C 238.406 189.656,238.664 190.196,238.987 190.624 C 239.310 191.051,239.580 191.209,239.587 190.976 C 239.594 190.744,239.336 190.204,239.013 189.776 C 238.690 189.349,238.420 189.191,238.413 189.424 M266.463 190.800 C 266.462 191.130,266.703 192.030,267.000 192.800 C 267.350 193.708,267.543 193.919,267.552 193.400 C 267.558 192.960,267.317 192.060,267.014 191.400 C 266.712 190.740,266.464 190.470,266.463 190.800 M260.464 193.800 C 260.418 196.112,260.613 197.555,261.166 199.000 C 262.138 201.538,263.194 203.556,263.198 202.880 C 263.199 202.594,262.908 201.795,262.550 201.104 C 261.469 199.014,261.114 197.559,260.814 194.000 L 260.527 190.600 260.464 193.800 M239.614 191.856 C 239.606 192.107,239.956 193.097,240.391 194.056 C 240.826 195.015,241.180 195.530,241.178 195.200 C 241.172 194.485,239.633 191.196,239.614 191.856 M149.344 196.000 C 149.344 198.090,149.412 198.945,149.494 197.900 C 149.576 196.855,149.576 195.145,149.494 194.100 C 149.412 193.055,149.344 193.910,149.344 196.000 M267.917 197.600 C 268.276 201.409,268.276 204.362,267.915 207.400 L 267.630 209.800 268.207 207.800 C 268.940 205.263,268.936 199.660,268.200 196.800 L 267.634 194.600 267.917 197.600 M241.227 196.200 C 241.229 196.906,242.370 198.655,242.386 197.976 C 242.394 197.634,242.136 197.004,241.813 196.576 C 241.490 196.149,241.226 195.980,241.227 196.200 M242.428 199.200 C 242.428 199.530,242.686 200.250,243.000 200.800 C 243.330 201.378,243.572 201.547,243.572 201.200 C 243.572 200.870,243.314 200.150,243.000 199.600 C 242.670 199.022,242.428 198.853,242.428 199.200 M149.684 202.600 C 149.671 203.700,149.918 205.230,150.232 206.000 L 150.804 207.400 150.537 205.800 C 150.390 204.920,150.143 203.390,149.988 202.400 L 149.707 200.600 149.684 202.600 M243.741 202.600 C 246.601 214.572,258.165 223.766,265.081 219.566 C 266.661 218.607,271.912 213.584,270.566 214.320 C 270.144 214.550,268.995 215.565,268.011 216.575 C 260.523 224.263,251.118 219.169,244.422 203.800 C 243.942 202.700,243.636 202.160,243.741 202.600 M263.383 204.234 C 264.448 206.787,263.456 209.322,260.009 212.856 C 257.593 215.332,257.579 215.361,258.485 215.864 C 259.548 216.454,261.554 216.543,262.354 216.037 C 262.701 215.817,262.251 215.751,261.154 215.860 C 258.263 216.148,257.938 215.541,259.900 213.523 C 262.438 210.912,262.998 210.178,263.780 208.444 C 264.537 206.765,264.398 204.293,263.517 203.748 C 263.204 203.555,263.163 203.705,263.383 204.234 M150.846 208.292 C 150.797 209.234,151.983 212.551,152.267 212.267 C 152.358 212.175,152.167 211.402,151.841 210.550 C 151.515 209.697,151.168 208.640,151.070 208.200 C 150.910 207.478,150.888 207.487,150.846 208.292 M266.574 211.263 C 266.197 211.998,265.778 212.693,265.644 212.806 C 264.435 213.828,263.086 215.668,264.061 214.965 C 265.289 214.080,267.841 210.508,267.494 210.160 C 267.365 210.031,266.951 210.527,266.574 211.263 M139.845 211.128 C 139.733 211.308,140.173 211.377,140.821 211.282 C 141.470 211.187,142.000 211.040,142.000 210.955 C 142.000 210.650,140.043 210.807,139.845 211.128 M141.400 211.600 L 140.200 211.905 141.276 211.953 C 141.868 211.979,142.464 211.820,142.600 211.600 C 142.736 211.380,142.792 211.221,142.724 211.247 C 142.656 211.273,142.060 211.432,141.400 211.600 M147.722 213.600 C 148.099 214.150,148.587 215.050,148.805 215.600 C 149.023 216.150,149.460 217.050,149.776 217.600 L 150.350 218.600 195.475 218.710 C 246.854 218.835,243.387 219.033,242.851 216.000 C 242.564 214.377,243.217 214.400,197.655 214.400 C 157.467 214.400,153.803 214.346,153.131 213.738 C 152.729 213.374,152.400 213.273,152.400 213.514 C 152.400 214.525,155.337 214.609,197.551 214.800 C 241.482 214.999,241.705 215.004,242.246 215.819 C 242.709 216.517,242.699 216.767,242.172 217.519 L 241.555 218.400 196.223 218.400 L 150.892 218.400 150.264 217.442 C 149.919 216.915,149.523 216.032,149.384 215.480 C 149.246 214.928,148.661 214.054,148.084 213.538 L 147.037 212.600 147.722 213.600 M124.900 213.465 C 124.252 213.726,124.260 214.261,124.914 214.512 C 125.221 214.630,125.429 214.405,125.429 213.955 C 125.429 213.540,125.422 213.214,125.414 213.232 C 125.406 213.249,125.175 213.354,124.900 213.465 M193.900 227.895 C 195.055 227.976,196.945 227.976,198.100 227.895 C 199.255 227.814,198.310 227.748,196.000 227.748 C 193.690 227.748,192.745 227.814,193.900 227.895 M211.500 227.895 C 212.655 227.976,214.545 227.976,215.700 227.895 C 216.855 227.814,215.910 227.748,213.600 227.748 C 211.290 227.748,210.345 227.814,211.500 227.895 M155.100 228.282 C 155.595 228.378,156.405 228.378,156.900 228.282 C 157.395 228.187,156.990 228.109,156.000 228.109 C 155.010 228.109,154.605 228.187,155.100 228.282 M252.705 228.283 C 253.202 228.379,253.922 228.375,254.305 228.275 C 254.687 228.175,254.280 228.096,253.400 228.101 C 252.520 228.105,252.207 228.187,252.705 228.283 " stroke="none" fill="#81aa34" fill-rule="evenodd"></path></g></svg>